#N canvas 64 56 796 461 10;
#N canvas 409 57 715 557 Sequencer 0;
#X obj 55 34 inlet;
#X obj 67 492 outlet;
#X obj 144 102 metro 300;
#X obj 70 170 bng 15 250 50 0 empty empty empty 17 7 0 10 -262144 -1
-1;
#X obj 146 234 f;
#X obj 256 236 + 1;
#X floatatom 60 310 5 0 0 0 - - -;
#X obj 94 74 tgl 15 0 empty empty empty 17 7 0 10 -262144 -1 -1 0 1
;
#X obj 150 320 mod 16;
#X floatatom 62 390 5 0 0 0 - - -;
#X obj 152 378 hradio 15 1 0 16 empty empty empty 0 -8 0 10 -232576
-1 -1 2;
#N canvas 0 22 450 278 (subpatch) 0;
#X array notes 16 float 3;
#A 0 0 3 3 1 0 1 0 1 0 1 0 1 0 1 0 1;
#X coords 0 1 16 -1 200 140 1;
#X restore 418 86 graph;
#X obj 160 442 tabread notes;
#X floatatom 181 486 5 0 0 0 - - -;
#X msg 390 259 \; notes 0 0 3 3 1 0 1 0 1 0 1 0 1 0 1 0 1;
#X connect 0 0 7 0;
#X connect 2 0 3 0;
#X connect 2 0 4 0;
#X connect 4 0 5 0;
#X connect 4 0 6 0;
#X connect 4 0 8 0;
#X connect 5 0 4 1;
#X connect 7 0 2 0;
#X connect 8 0 9 0;
#X connect 8 0 10 0;
#X connect 10 0 12 0;
#X connect 12 0 1 0;
#X connect 12 0 13 0;
#X restore 85 67 pd Sequencer;
#X floatatom 80 124 5 0 0 0 - - -;
#X obj 71 22 tgl 15 0 empty empty empty 17 7 0 10 -262144 -1 -1 0 1
;
#N canvas 589 71 894 564 Drum 0;
#N canvas 0 22 450 278 (subpatch) 0;
#X array kick 21340 float 0;
#X coords 0 1 21339 -1 200 140 1;
#X restore 427 30 graph;
#X obj 25 75 soundfiler;
#X obj 25 21 bng 15 250 50 0 empty empty empty 17 7 0 10 -262144 -1
-1;
#X obj 37 400 tabplay~ kick;
#X obj 37 497 dac~;
#X msg 42 355 1;
#X obj 36 443 *~ 1;
#X msg 25 48 read -resize kick.wav kick;
#N canvas 0 22 450 278 (subpatch) 0;
#X array snare 14175 float 0;
#X coords 0 1 14174 -1 200 140 1 0 0;
#X restore 425 196 graph;
#X obj 198 74 soundfiler;
#X obj 198 20 bng 15 250 50 0 empty empty empty 17 7 0 10 -262144 -1
-1;
#X msg 198 47 read -resize snare.wav snare;
#X obj 139 401 tabplay~ snare;
#X msg 138 359 1;
#N canvas 0 22 450 278 (subpatch) 0;
#X array hihat 10418 float 0;
#X coords 0 1 10417 -1 200 140 1 0 0;
#X restore 429 356 graph;
#X obj 232 176 soundfiler;
#X obj 232 122 bng 15 250 50 0 empty empty empty 17 7 0 10 -262144
-1 -1;
#X msg 232 149 read -resize hihat.wav hihat;
#X msg 253 360 1;
#X obj 259 401 tabplay~ hihat;
#X obj 64 134 inlet;
#X obj 106 237 sel 0 1 3;
#X connect 2 0 7 0;
#X connect 3 0 6 0;
#X connect 5 0 3 0;
#X connect 6 0 4 0;
#X connect 6 0 4 1;
#X connect 7 0 1 0;
#X connect 10 0 11 0;
#X connect 11 0 9 0;
#X connect 12 0 6 0;
#X connect 13 0 12 0;
#X connect 16 0 17 0;
#X connect 17 0 15 0;
#X connect 18 0 19 0;
#X connect 19 0 6 0;
#X connect 20 0 21 0;
#X connect 21 0 5 0;
#X connect 21 1 13 0;
#X connect 21 2 18 0;
#X restore 143 144 pd Drum;
#X connect 0 0 1 0;
#X connect 0 0 3 0;
#X connect 2 0 0 0;
