#N canvas 160 44 911 563 10;
#X obj 72 51 metro 300;
#X obj 35 85 bng 15 250 50 0 empty empty empty 17 7 0 10 -262144 -1
-1;
#X obj 73 117 f;
#X obj 128 118 + 1;
#X floatatom 30 155 5 0 0 0 - - -;
#X obj 73 14 tgl 15 0 empty empty empty 17 7 0 10 -262144 -1 -1 1 1
;
#X obj 75 160 mod 16;
#X floatatom 31 195 5 0 0 0 - - -;
#X obj 76 189 hradio 15 1 0 16 empty empty empty 0 -8 0 10 -232576
-1 -1 6;
#N canvas 0 22 450 278 (subpatch) 0;
#X array notes 16 float 3;
#A 0 0 1 0 1 0 1 0 1 0 1 0 1 0 1 0 1;
#X coords 0 1 16 -1 200 140 1;
#X restore 209 43 graph;
#X msg 178 126 \; notes 0 0 1 0 1 0 1 0 1 0 1 0 1 0 1 0 1;
#X obj 80 221 tabread notes;
#X floatatom 111 242 5 0 0 0 - - -;
#X connect 0 0 1 0;
#X connect 0 0 2 0;
#X connect 2 0 3 0;
#X connect 2 0 4 0;
#X connect 2 0 6 0;
#X connect 3 0 2 1;
#X connect 5 0 0 0;
#X connect 6 0 7 0;
#X connect 6 0 8 0;
#X connect 8 0 11 0;
#X connect 11 0 12 0;
