#N canvas 460 50 917 582 10;
#X obj 262 50 key;
#X floatatom 150 105 5 0 0 0 - - -;
#X obj 315 484 dac~;
#X obj 315 393 osc~ 440;
#X obj 315 438 *~ 0.5;
#X obj 251 157 sel 97 115 100 102 103 104;
#X floatatom 332 338 5 0 0 0 - - -;
#X msg 176 247 523.25;
#X msg 233 248 587.33;
#X msg 301 247 659.26;
#X msg 371 248 698.46;
#X msg 440 249 783.99;
#X msg 514 249 880;
#X msg 597 250 987.77;
#X connect 0 0 1 0;
#X connect 0 0 5 0;
#X connect 3 0 4 0;
#X connect 4 0 2 0;
#X connect 4 0 2 1;
#X connect 5 0 7 0;
#X connect 5 1 8 0;
#X connect 5 2 9 0;
#X connect 5 3 10 0;
#X connect 5 4 11 0;
#X connect 5 5 12 0;
#X connect 5 6 13 0;
#X connect 6 0 3 0;
#X connect 7 0 6 0;
#X connect 8 0 6 0;
#X connect 9 0 6 0;
#X connect 10 0 6 0;
#X connect 11 0 6 0;
#X connect 12 0 6 0;
#X connect 13 0 6 0;
